<?xml version="1.0" encoding="UTF-8" standalone="no"?>
<!-- Created with Inkscape (http://www.inkscape.org/) -->

<svg
   version="1.1"
   id="svg55"
   width="500"
   height="282"
   viewBox="0 0 500 282"
   sodipodi:docname="FoodBites.png"
   inkscape:version="1.2-dev (9ee32be, 2021-06-19)"
   xmlns:inkscape="http://www.inkscape.org/namespaces/inkscape"
   xmlns:sodipodi="http://sodipodi.sourceforge.net/DTD/sodipodi-0.dtd"
   xmlns="http://www.w3.org/2000/svg"
   xmlns:svg="http://www.w3.org/2000/svg">
  <defs
     id="defs59" />
  <sodipodi:namedview
     id="namedview57"
     pagecolor="#ffffff"
     bordercolor="#666666"
     borderopacity="1.0"
     inkscape:pageshadow="2"
     inkscape:pageopacity="0.0"
     inkscape:pagecheckerboard="0"
     showgrid="false"
     height="282px"
     inkscape:zoom="1"
     inkscape:cx="439"
     inkscape:cy="202"
     inkscape:window-width="1280"
     inkscape:window-height="702"
     inkscape:window-x="0"
     inkscape:window-y="23"
     inkscape:window-maximized="0"
     inkscape:current-layer="g61" />
  <g
     inkscape:groupmode="layer"
     inkscape:label="Image"
     id="g61">
    <path
       style="fill:#d40000;stroke-width:0.999999"
       d="m 187.8276,277.66007 c -2.16124,-3.29846 -1.91398,-4.26536 10.36705,-40.54043 6.91959,-20.43878 13.68227,-38.63849 15.02818,-40.44385 3.46279,-4.64483 11.14281,-7.38662 15.33736,-5.47546 2.53798,1.15639 3.24437,2.46508 3.24437,6.01075 0,4.01227 -21.27358,68.76161 -24.68788,75.1413 -2.40188,4.48795 -6.53502,7.27303 -11.85173,7.98616 -4.55502,0.61094 -5.50659,0.26824 -7.43735,-2.67847 z m 60.26193,1.27004 c -4.68604,-2.12835 -5.77825,-4.2825 -5.77825,-11.39635 0,-5.50094 0.90811,-7.56766 11.62276,-37.83428 3.90079,-11.01889 7.81468,-22.02881 7.81468,-22.6205 0,-0.59167 -3.26695,0.0184 -5.9757,-0.65073 -4.84428,-1.19669 -5.55306,-4.02899 -5.25955,-7.12577 0.38383,-4.04943 1.58363,-5.47835 3.38556,-5.99115 1.80191,-0.51279 4.19443,-0.37065 6.99829,-0.49443 1.66191,-0.0286 3.69946,0.10559 5.09544,-0.21335 0.77852,-1.31805 2.18086,-5.64737 2.18086,-5.64737 l 2.04953,-6.04137 c 4.61734,-13.61043 8.6526,-18.99395 14.80713,-21.02513 3.88561,-1.28237 5.19907,-1.18583 7.89454,0.5803 4.08822,2.67871 4.07984,5.6762 -0.0499,17.81816 -2.3595,6.93717 -3.4911,10.71163 -4.02186,12.55759 -0.42095,1.46403 -0.58458,1.67366 0.82439,1.77994 1.40897,0.10624 4.39056,0.10926 6.32001,0.10926 7.05921,0 10.08203,2.2045 8.75517,6.38508 -1.34043,4.22331 -4.39251,6.84768 -13.67429,7.43038 0,0 -6.89124,0.35324 -7.92214,0.49735 -0.72785,0.10178 -8.91468,24.4951 -8.91468,24.4951 -7.93907,23.42279 -9.66096,31.1102 -6.81044,32.87191 0.8138,0.50297 5.55208,0.8117 10.52949,0.68609 7.23545,-0.1826 9.21191,0.19399 9.85827,1.87832 1.25211,3.26301 -1.92559,7.88624 -7.2155,10.49779 -6.41065,3.16484 -26.74426,4.07365 -32.51377,1.45321 z m 73.18883,-0.0877 c -11.40183,-3.71634 -17.72222,-12.74353 -17.63145,-25.18226 0.11295,-15.47114 8.12831,-32.9479 20.60619,-44.92979 9.52441,-9.14579 18.80334,-14.18065 30.8333,-16.73052 21.08805,-4.46983 36.45517,0.19008 43.12922,13.07848 3.03447,5.85995 2.62938,17.73379 -0.85024,24.92171 -2.36524,4.88594 -5.66956,9.02121 -8.23766,9.70491 -5.56843,1.48247 -16.39998,1.11582 -33.42035,1.39544 -16.46024,0.27042 -22.85604,0.64277 -26.64967,0.75035 -2.43958,0.0692 -3.96889,4.99678 -3.98806,11.10089 -0.0149,4.75855 1.07998,8.525 4.34743,10.97839 2.45469,1.84312 6.31398,4.15967 17.30476,3.70029 6.01063,-0.25122 16.28283,-4.57609 24.82021,-10.44997 6.2398,-4.2931 13.49311,-5.36768 14.71625,-2.18023 2.13793,5.57138 -9.79834,16.27741 -24.55093,22.02053 -9.20829,3.58476 -31.88514,4.6066 -40.429,1.82178 z m 57.07602,-54.06774 c 1.34007,-7.1432 -0.26969,-13.95277 -4.08129,-17.26462 -4.50631,-3.91545 -16.8124,-4.13185 -24.08148,-0.42345 -6.87952,3.50962 -18.5732,17.1144 -18.5732,21.6086 0,1.21403 6.08845,1.99883 25.89092,1.07783 0,0 16.79653,-0.38793 18.6809,-1.39209 1.37869,-0.73469 2.16415,-3.60633 2.16415,-3.60633 z m 40.94143,54.08531 c -10.66628,-3.80683 -16.50543,-11.17367 -14.6659,-18.50292 1.13946,-4.54001 7.82511,-9.83512 12.41792,-9.83512 3.30849,0 4.23514,0.91816 7.1543,7.08878 3.94093,8.33043 8.86197,11.31321 18.59203,11.26914 15.39251,-0.0697 28.27742,-12.98022 20.22623,-20.26642 -1.40729,-1.2736 -7.70057,-3.76371 -13.98505,-5.5336 -13.53807,-3.8127 -23.19943,-8.45861 -26.04835,-12.52602 -2.79576,-3.99151 -2.59538,-11.93414 0.45016,-17.84273 7.89306,-15.31321 29.90102,-24.21568 52.78964,-21.35403 9.60725,1.20113 13.21486,2.69555 18.57415,7.69414 5.93824,5.53854 4.54207,14.10368 -2.92872,17.96698 -5.70449,2.9499 -8.67873,2.43745 -12.07479,-2.08042 -7.90646,-10.51818 -9.6327,-11.69789 -17.0723,-11.66722 -11.85778,0.0489 -20.78613,5.6086 -20.78613,12.94367 0,3.8589 4.32327,6.33107 19.04344,10.8896 22.22266,6.88192 26.92347,10.34293 26.92347,19.82259 0,9.45842 -8.8553,21.703 -19.69493,27.23296 -12.32353,6.287 -37.6508,8.72085 -48.91517,4.70055 z m -352.813553,-0.6593 c -4.731755,-1.2257 -6.672676,-3.26014 -6.705167,-7.02822 -0.02574,-2.98918 29.404532,-92.74809 33.217856,-101.31053 4.908333,-11.02113 5.821551,-11.26438 42.279104,-11.2616 17.64539,10e-4 33.67015,0.59953 36.40441,1.35892 15.58738,4.32903 19.48528,20.98832 8.71522,37.24814 -3.44358,5.19885 -16.39102,13.81567 -19.14106,15.22767 -0.76738,0.394 -1.85233,0.69588 -2.70286,1.54641 -1.18634,1.18635 -0.068,2.39079 4.8027,5.17258 11.4056,6.514 13.39285,16.91386 6.01431,31.47467 -6.52179,12.87016 -17.70168,21.50471 -33.06766,25.53909 -8.85468,2.32483 -62.643613,3.891 -69.816853,2.03287 z m 64.285063,-17.97129 c 13.19304,-3.9072 22.57615,-18.54903 17.80261,-27.78002 -2.99485,-5.79142 -8.31013,-7.19649 -29.76691,-7.86879 -15.38241,-0.48197 -19.528207,-0.89457 -20.635549,1.2546 -0.981394,1.90474 -11.472711,33.14123 -12.128685,35.52181 -0.556068,2.018 37.283384,1.07732 44.728534,-1.1276 z m 16.4197,-54.22026 c 10.14005,-4.60552 17.28019,-17.09813 13.94994,-24.40726 -2.18614,-4.79807 -9.45427,-6.42511 -29.10555,-6.51558 l -17.68939,-0.0814 -4.95707,15.10341 c -2.72638,8.30688 -4.96096,15.84217 -4.96573,16.74509 -0.007,1.23829 4.58999,1.63458 18.70643,1.61283 15.35898,-0.0237 19.67383,-0.46429 24.06137,-2.45706 z m 75.36944,-31.0702 c -1.22653,-1.47786 -1.36061,-3.35573 -0.48913,-6.85085 2.23101,-8.94794 15.45865,-14.19995 20.8261,-8.26898 5.36895,5.93262 -3.81464,17.15577 -14.03809,17.15577 -2.56119,0 -5.35997,-0.90463 -6.29888,-2.03594 z M 10.835057,130.49299 C 6.9664861,127.55633 8.1280567,119.86018 16.251324,94.60673 20.483992,81.448295 24.157104,69.84165 23.771716,69.456264 23.386328,69.070878 17.472899,69.256295 11.272837,69.22622 L 0,69.171558 4.7857896,64.939043 c 4.4234036,-3.91202 12.4141274,-7.453298 21.0999054,-9.350916 3.268125,-0.713998 3.992454,-2.156886 8.865046,-17.659489 2.918376,-9.285079 4.899086,-17.921605 5.306138,-19.031653 0.394002,-1.074457 -1.568682,-0.780847 -14.281675,-0.573693 L 9.6548529,18.585959 13.889474,13.339152 C 15.500554,11.34298 18.846433,9.0085969 21.013444,7.8811993 30.653211,2.8660781 36.843863,2.3321265 85.534648,2.3161301 137.61584,2.2990563 137.02513,2.2079108 135.31578,9.9906077 133.478,18.357924 132.31165,18.649774 97.815206,19.373963 80.611171,19.735132 66.244909,19.928535 65.72966,20.44582 64.050318,22.131847 54.500088,53.737393 54.469172,55.819157 c -0.01954,1.315598 7.411941,0.328334 25.997374,0.328334 17.484879,0 25.193814,0.46181 26.308014,1.576009 2.50486,2.504855 0.19895,6.900316 -1.59078,11.155827 0,0 -1.71049,3.205745 -4.48013,3.619251 -1.731141,0.258452 -25.937946,0.722337 -25.937946,0.722337 l -27.251277,0.65667 -7.481112,23.255881 c -4.114613,12.790724 -8.484186,24.786754 -9.710165,26.657844 -4.688243,7.15515 -14.462739,10.51648 -19.488093,6.70168 z m 127.065673,-0.17245 c -3.61169,-1.00288 -7.99823,-3.02111 -8.38348,-3.19472 -3.23749,-1.4589 -9.76772,-9.0472 -11.43245,-13.0234 -2.71807,-6.49215 -2.31709,-19.882232 0.88134,-29.431214 9.83361,-29.358409 35.48,-48.515669 64.94936,-48.515669 15.57163,0 24.74675,4.340025 31.84227,15.062082 9.54862,14.428921 -0.62377,46.638499 -20.16037,63.835301 -8.5915,7.56252 -16.71754,11.84134 -28.02826,14.75843 -11.30454,2.91549 -20.43797,3.07225 -29.66841,0.50919 z m 28.59371,-15.33483 c 17.38728,-5.20936 33.7879,-35.262093 28.63302,-52.467546 -3.91854,-13.078939 -24.68304,-14.088477 -39.11886,-1.901914 -8.51005,7.184102 -17.4512,26.234379 -17.4512,37.182015 0,14.616665 11.95954,21.974415 27.93704,17.187445 z m 82.64102,14.92974 c -21.63257,-7.73866 -25.77492,-29.18201 -11.05525,-57.228657 11.56309,-22.03215 35.34444,-36.531256 59.91833,-36.531256 13.28869,0 19.99311,2.357406 27.24761,9.580791 9.86293,9.820607 11.02551,22.148695 3.81402,40.444379 -7.90889,20.064993 -23.56144,35.520853 -42.95109,42.411353 -11.08506,3.93929 -27.97158,4.5437 -36.97362,1.32339 z m 33.55801,-15.94426 c 7.38717,-3.35318 17.41552,-13.58107 21.16062,-21.58164 5.0281,-10.741417 7.22582,-21.720876 5.57499,-27.851614 -2.17379,-8.0728 -6.55742,-11.400581 -15.90887,-12.077004 -14.65294,-1.059892 -27.66024,8.31221 -35.87834,25.851304 -4.69593,10.022034 -6.17849,22.614504 -3.4407,29.224114 3.59755,8.68524 16.9107,11.69195 28.4923,6.43484 z m 75.84843,16.39027 c -7.32139,-2.57057 -13.30896,-9.86553 -15.26256,-18.59512 -1.34147,-5.99431 -1.24672,-8.73241 0.59702,-17.253539 5.07805,-23.468892 18.63765,-42.759891 36.75369,-52.288765 8.13175,-4.277221 10.90303,-5.03888 20.10278,-5.524974 13.50264,-0.713445 19.03478,1.082744 26.27307,8.530408 l 5.64462,5.80788 2.11205,-4.996629 c 1.16162,-2.748152 4.53661,-12.037775 7.49999,-20.643595 6.01379,-17.4644437 10.41908,-23.8423918 17.36856,-25.1461185 5.53324,-1.03805102 9.88803,1.2332266 9.88803,5.1571589 0,1.6583679 -5.05427,17.1513956 -11.23173,34.4289646 -6.17745,17.277583 -15.10707,42.347331 -19.8436,55.710568 -10.30268,29.067151 -11.19524,30.906361 -16.59702,34.200011 -8.91741,5.43727 -16.6826,1.22996 -14.13361,-7.65782 0.65933,-2.299 0.75656,-4.45331 0.21606,-4.78735 -0.54053,-0.33405 -4.19619,1.67226 -8.12373,4.45849 -13.22095,9.37905 -29.42612,12.75662 -41.26362,8.60043 z m 32.98083,-15.74074 c 24.83507,-7.37522 41.31205,-50.888965 22.87911,-60.421004 -18.2103,-9.416926 -45.13129,13.659828 -47.03895,40.321962 -0.70671,9.877102 0.98439,15.594212 5.48497,18.543102 5.714,3.74395 10.08163,4.10786 18.67487,1.55594 z"
       id="path745"
       sodipodi:nodetypes="ssssssssssssssscccssssssssssssssssssssssssssssssssssssssscsssssssssssssssssssssssssssssssssssssssssscssssssssssssscssssscsssssssssssccssssssssssssssssssssssssssssssssssssscsssssssssssssssss" />
  </g>
</svg>
