<?xml version="1.0" encoding="UTF-8"?>
<svg width="620" height="411.75" data-name="Layer 1" version="1.1" viewBox="0 0 620 411.75" xmlns="http://www.w3.org/2000/svg">
 <polygon transform="translate(-124.2 -140)" points="628.6 501.37 628.6 540.26 618.51 540.26 613.72 501.37" fill="#9f616a"/>
 <path d="m506.97 410.04-32.515-1e-3v-0.41127a12.657 12.657 0 0 1 12.656-12.656h8.1e-4l19.859 8.1e-4z" fill="#2f2e41"/>
 <polygon transform="translate(-124.2 -140)" points="542.68 502.59 530.31 539.46 520.75 536.26 528.57 497.86" fill="#9f616a"/>
 <path d="m405.44 409.55-30.829-10.336 0.13072-0.38994a12.657 12.657 0 0 1 16.022-7.9766l7.7e-4 2.6e-4 18.829 6.3132z" fill="#2f2e41"/>
 <path d="m418.54 199.24-21.837 184.73 21.418 1.8064s33.69-181.62 44.077-160.11 23.112 156.08 23.112 156.08h21.257s5.4512-209.95-16.805-220.34z" fill="#2f2e41"/>
 <circle transform="rotate(-80.009)" cx="36.097" cy="454.59" r="21.515" fill="#9f616a"/>
 <path d="m441.17 72.753 27.45 2.2256s21.886 0.37095 30.788 6.306-8.5317 42.658-8.5317 42.658-4.5325 14.56-1.1128 21.144c11.096 21.362 9.4508 37.813 9.4508 37.813s-22.805 5.2164-62.125 15.603c0 0-24.482 9.6445-23.74 4.4513s8.1608-64.544 8.1608-64.544v-61.576z" fill="#3f3d56"/>
 <path d="m489.19 40.99c-1.0983-6.1268-3.5584-14.818-9.0393-21.408 0.1727 1e-3 0.3446 0.0086 0.5173 0.0036 1.8836-0.055 4.0269-0.64908 4.8051-2.3652a4.1044 4.1044 0 0 0-0.75145-4.094 12.086 12.086 0 0 0-3.4291-2.6794c1.3218 0.8025 3.1901 1.5479 4.2454 0.41749a2.2903 2.2903 0 0 0 0.25865-2.4452 6.0658 6.0658 0 0 0-1.6489-1.9891 40.545 40.545 0 0 0-7.2498-5.1158c-2.0102-1.1106-4.6545-2.0025-6.459-0.58176-1.8383 1.4474-1.5431 4.2658-1.0707 6.5574a7.5434 7.5434 0 0 0-3.3773-1.0192 2.586 2.586 0 0 0-2.5905 1.9902 2.6562 2.6562 0 0 0 1.1968 2.32c-7.0936-1.1665-16.158 0.15709-27.745 5.5187 0 0-11.236 3.7452-11.806 18.536a26.239 26.239 0 0 0 0.78 7.0232c0.633 2.6812 2.8849 15.835 0.18395 21.15l13.531 4.8212 0.155-8.105c-10.516-15.18-5.3212-20.751-1.2266-29.881a0.09651 0.09651 0 0 1 0.1723-0.013c0.75667 1.2984 3.6564 5.7491 13.635 5.7491l-3.856-3.8561s16.967 6.9411 23.137 6.9411c0 0 4.6272 3.0849 0 7.7122s-14.755 11.438-9.356 19.922 4.9336 11.493 4.9336 11.493l12.34-6.941s7.537-14.912 8.8736-19.303a22.15 22.15 0 0 0 0.84201-10.359z" fill="#2f2e41"/>
 <polygon transform="translate(-124.2 -140)" points="465.12 348.18 710.6 348.18 710.6 484.24 679.42 484.24 679.42 521.66 645.82 484.24 465.12 484.24" fill="#d40000"/>
 <g fill="#fff">
  <rect x="381.17" y="248.15" width="164.98" height="7.3701"/>
  <rect x="381.17" y="272.53" width="164.98" height="7.3701"/>
  <rect x="381.17" y="296.91" width="164.98" height="7.3701"/>
 </g>
 <path d="m502.1 121-14.398 3.5-0.109 29.14-16.194 55.894a9.0468 9.0468 0 1 0 14.217 4.3056l19.36-57.863z" fill="#9f616a"/>
 <path d="m406.27 120.39 17.273 4.9352 0.109 29.14 16.194 55.894a9.0468 9.0468 0 1 1-14.217 4.3056l-19.36-57.863z" fill="#9f616a"/>
 <path d="m480.49 78.318 3.5682-1.1635a8.1197 8.1197 0 0 1 6.0764 0.42161s10.386 0.74188 11.87 8.1607 5.0924 72.264 5.0924 72.264l-22-7z" fill="#3f3d56"/>
 <path d="m430.41 78.318-6.3157-0.31765-2-1s-11.715 1.3176-13.199 8.7365-5.8011 74.264-5.8011 74.264l22-6z" fill="#3f3d56"/>
 <path d="m67.576 341.15 10.428-9.0965a174.18 174.18 0 0 0-2.4387-19.481l-5.7548 2.4346 5.3391-4.6574c-1.5364-7.9518-3.0572-13.12-3.0572-13.12s-21.04 18.684-32.814 41.477l5.1648 16.99-7.8889-11.235a70.472 70.472 0 0 0-2.9982 8.3327c-8.2095 28.638-5.5117 54.535 6.026 57.843s27.546-17.227 35.755-45.865a92.776 92.776 0 0 0 2.8916-28.129z" fill="#f1f1f1"/>
 <path d="m95.189 363.42 13.629-2.3968a174.18 174.18 0 0 0 7.9819-17.937l-6.1849-0.89046 6.978-1.2271c2.7951-7.6013 4.1648-12.812 4.1648-12.812s-27.669 5.1186-49.529 18.544l-4.3605 17.214-0.9461-13.695a70.463 70.463 0 0 0-6.8738 5.5834c-21.831 20.272-32.908 43.836-24.74 52.631s32.485-0.50861 54.316-20.781a92.773 92.773 0 0 0 17.015-22.585z" fill="#f1f1f1"/>
 <path d="m619 411h-618a1 1 0 0 1 0-2h618a1 1 0 0 1 0 2z" fill="#cbcbcb"/>
</svg>
