<?xml version="1.0" encoding="UTF-8" standalone="no"?>
<svg
   data-name="Layer 1"
   width="635"
   height="420"
   viewBox="0 0 634.99999 419.99999"
   version="1.1"
   id="svg50"
   sodipodi:docname="undraw_personal_opinions_re_qw29 (1).svg"
   inkscape:version="1.2-dev (9ee32be, 2021-06-19)"
   xmlns:inkscape="http://www.inkscape.org/namespaces/inkscape"
   xmlns:sodipodi="http://sodipodi.sourceforge.net/DTD/sodipodi-0.dtd"
   xmlns="http://www.w3.org/2000/svg"
   xmlns:svg="http://www.w3.org/2000/svg">
  <defs
     id="defs54" />
  <sodipodi:namedview
     id="namedview52"
     pagecolor="#ffffff"
     bordercolor="#666666"
     borderopacity="1.0"
     inkscape:pageshadow="2"
     inkscape:pageopacity="0.0"
     inkscape:pagecheckerboard="0"
     showgrid="false"
     height="415px"
     inkscape:zoom="1.1039267"
     inkscape:cx="317.9559"
     inkscape:cy="209.70596"
     inkscape:window-width="1280"
     inkscape:window-height="701"
     inkscape:window-x="0"
     inkscape:window-y="23"
     inkscape:window-maximized="0"
     inkscape:current-layer="svg50" />
  <polygon
     points="618.514,540.263 613.716,501.367 628.599,501.367 628.598,540.263 "
     fill="#9f616a"
     id="polygon12"
     transform="translate(-120.14836,-137.64569)" />
  <path
     d="m 511.02107,412.39257 -32.51549,-10e-4 v -0.41127 a 12.65661,12.65661 0 0 1 12.65593,-12.65574 h 8.1e-4 l 19.85935,8.1e-4 z"
     fill="#2f2e41"
     id="path14" />
  <polygon
     points="520.752,536.259 528.567,497.855 542.678,502.586 530.313,539.464 "
     fill="#9f616a"
     id="polygon16"
     transform="translate(-120.14836,-137.64569)" />
  <path
     d="m 409.49604,411.90429 -30.82882,-10.33636 0.13072,-0.38994 a 12.65662,12.65662 0 0 1 16.02229,-7.97663 l 7.7e-4,2.6e-4 18.82917,6.31318 z"
     fill="#2f2e41"
     id="path18" />
  <path
     d="m 422.59577,201.59893 -21.83728,184.72923 21.418,1.80638 c 0,0 33.69049,-181.62307 44.07687,-160.10837 10.38638,21.5147 23.112,156.07642 23.112,156.07642 h 21.25667 c 0,0 5.45117,-209.95329 -16.80533,-220.33966 z"
     fill="#2f2e41"
     id="path20" />
  <circle
     cx="34.481712"
     cy="458.98758"
     r="21.514568"
     transform="rotate(-80.008582)"
     fill="#9f616a"
     id="circle22"
     style="stroke-width:0.999996" />
  <path
     d="m 445.2232,75.107695 27.44975,2.22561 c 0,0 21.88557,0.37095 30.78819,6.306 8.90262,5.93505 -8.53166,42.658385 -8.53166,42.658385 0,0 -4.5325,14.56 -1.11281,21.14369 11.09589,21.36213 9.45082,37.81286 9.45082,37.81286 0,0 -22.80474,5.21641 -62.12459,15.60281 0,0 -24.4822,9.6445 -23.74029,4.45131 0.74191,-5.19319 8.16075,-64.54394 8.16075,-64.54394 V 79.188015 Z"
     fill="#3f3d56"
     id="path24" />
  <path
     d="m 493.24222,43.344385 c -1.09826,-6.12676 -3.55843,-14.818 -9.03927,-21.40759 0.1727,0.001 0.3446,0.0086 0.5173,0.0036 1.88364,-0.055 4.02694,-0.64908 4.80509,-2.36519 a 4.10439,4.10439 0 0 0 -0.75145,-4.094 12.08637,12.08637 0 0 0 -3.4291,-2.67941 c 1.32176,0.8025 3.19014,1.54787 4.24542,0.41749 a 2.2903,2.2903 0 0 0 0.25865,-2.44517 6.06575,6.06575 0 0 0 -1.64889,-1.9890697 40.545,40.545 0 0 0 -7.24981,-5.11575 c -2.01015,-1.11065 -4.65448,-2.00252 -6.459,-0.58176 -1.83826,1.44737 -1.54306,4.2658 -1.07074,6.55735 a 7.5434,7.5434 0 0 0 -3.3773,-1.01918 2.586,2.586 0 0 0 -2.59051,1.9902197 2.65621,2.65621 0 0 0 1.19685,2.32 c -7.09357,-1.16653 -16.15754,0.15709 -27.74534,5.51874 0,0 -11.23558,3.74519 -11.80629,18.53563 a 26.23857,26.23857 0 0 0 0.78,7.02324 c 0.633,2.68118 2.8849,15.83463 0.18395,21.15044 l 13.53088,4.82116 0.155,-8.105 c -10.51625,-15.18027 -5.32118,-20.75087 -1.22657,-29.88095 a 0.09651,0.09651 0 0 1 0.1723,-0.013 c 0.75667,1.29842 3.65643,5.74912 13.63531,5.74912 l -3.856,-3.85614 c 0,0 16.96683,6.94106 23.13665,6.94106 0,0 4.62717,3.08486 0,7.71223 -4.62717,4.62737 -14.75464,11.43825 -9.356,19.92171 5.39864,8.48346 4.93362,11.49322 4.93362,11.49322 l 12.33965,-6.941 c 0,0 7.537,-14.912 8.87359,-19.30325 a 22.14974,22.14974 0 0 0 0.84201,-10.35871 z"
     fill="#2f2e41"
     id="path26" />
  <polygon
     points="645.825,484.244 465.118,484.244 465.118,348.182 710.597,348.182 710.597,484.244 679.416,484.244 679.416,521.661 "
     fill="#d40000"
     id="polygon28"
     transform="translate(-120.14836,-137.64569)" />
  <rect
     x="385.22119"
     y="250.50443"
     width="164.97534"
     height="7.37006"
     fill="#ffffff"
     id="rect30" />
  <rect
     x="385.22119"
     y="274.8822"
     width="164.97534"
     height="7.37006"
     fill="#ffffff"
     id="rect32" />
  <rect
     x="385.22119"
     y="299.26001"
     width="164.97534"
     height="7.37006"
     fill="#ffffff"
     id="rect34" />
  <path
     d="m 506.15019,123.35417 -14.39822,3.5 -0.109,29.1399 -16.19429,55.89392 a 9.04684,9.04684 0 1 0 14.21707,4.30557 l 19.35953,-57.86281 z"
     fill="#9f616a"
     id="path36" />
  <path
     d="m 410.32086,122.7415 17.27327,4.93522 0.109,29.1399 16.19429,55.89392 a 9.04684,9.04684 0 1 1 -14.21707,4.30557 l -19.35953,-57.86282 z"
     fill="#9f616a"
     id="path38" />
  <path
     d="m 484.5431,80.671815 3.56817,-1.16349 a 8.11967,8.11967 0 0 1 6.07635,0.42161 v 0 c 0,0 10.38638,0.74188 11.87015,8.16073 1.48377,7.41885 5.09242,72.263505 5.09242,72.263505 l -22,-7 z"
     fill="#3f3d56"
     id="path40" />
  <path
     d="m 434.46592,80.671815 -6.31573,-0.31765 -2,-1 c 0,0 -11.71517,1.31765 -13.19894,8.7365 -1.48377,7.41885 -5.80106,74.263505 -5.80106,74.263505 l 22,-6 z"
     fill="#3f3d56"
     id="path42" />
  <path
     d="m 71.627379,343.50613 10.428,-9.09653 a 174.18428,174.18428 0 0 0 -2.4387,-19.48056 l -5.7548,2.43463 5.33914,-4.65743 c -1.53637,-7.95184 -3.05724,-13.12045 -3.05724,-13.12045 0,0 -21.04,18.68386 -32.81374,41.47657 l 5.16485,16.98969 -7.88893,-11.23455 a 70.472,70.472 0 0 0 -2.99821,8.33272 c -8.20952,28.63806 -5.51167,54.535 6.026,57.84251 11.53767,3.30751 27.54593,-17.22709 35.75548,-45.86511 a 92.77564,92.77564 0 0 0 2.89164,-28.12863 z"
     fill="#f1f1f1"
     id="path44" />
  <path
     d="M 99.241209,365.77393 112.8701,363.3771 a 174.17966,174.17966 0 0 0 7.98189,-17.9368 l -6.18489,-0.89046 6.978,-1.22712 c 2.79511,-7.60129 4.16481,-12.812 4.16481,-12.812 0,0 -27.668781,5.11864 -49.529261,18.54432 l -4.36053,17.21363 -0.9461,-13.6951 a 70.46339,70.46339 0 0 0 -6.87381,5.58343 c -21.83078,20.27193 -32.90751,43.83551 -24.74032,52.63064 8.16719,8.79513 32.4852,-0.50861 54.31606,-20.78054 a 92.77308,92.77308 0 0 0 17.015091,-22.58464 z"
     fill="#f1f1f1"
     id="path46" />
  <path
     d="M 623.05176,413.35417 H 5.0517594 a 1,1 0 0 1 0,-2 H 623.05176 a 1,1 0 0 1 0,2 z"
     fill="#cbcbcb"
     id="path48" />
</svg>
